<svg viewBox="0 0 23 28" fill="none" xmlns="http://www.w3.org/2000/svg">
<g clip-path="url(#clip0_114_150)">
<rect width="23" height="28" />
<path d="M1.00013 17.7505H0.250128H1.00013ZM4.55288 21.9083L4.44987 22.6512H4.44987L4.55288 21.9083ZM17.795 21.9083L17.8981 22.6512L17.795 21.9083ZM20.4392 15.1013L19.8475 15.5621L20.4392 15.1013ZM4.01091 8.00001C4.01091 4.54823 6.80913 1.75 10.2609 1.75V0.25C5.9807 0.25 2.51091 3.7198 2.51091 8.00001H4.01091ZM4.01091 12.169V8.00001H2.51091V12.169H4.01091ZM1.75013 17.7505C1.75013 16.9247 2.02995 16.1664 2.50042 15.5622L1.3169 14.6406C0.648594 15.4989 0.250128 16.5792 0.250128 17.7505H1.75013ZM4.6559 21.1654C2.97996 20.933 1.75013 19.4775 1.75013 17.7505H0.250128C0.250128 20.191 1.99779 22.3111 4.44987 22.6512L4.6559 21.1654ZM11.174 21.7283C9.21809 21.7283 6.69948 21.4487 4.65589 21.1654L4.44987 22.6512C6.50564 22.9362 9.10936 23.2283 11.174 23.2283V21.7283ZM17.692 21.1654C15.6484 21.4488 13.1298 21.7283 11.174 21.7283V23.2283C13.2386 23.2283 15.8423 22.9362 17.8981 22.6512L17.692 21.1654ZM20.5978 17.7505C20.5978 19.4775 19.368 20.933 17.692 21.1654L17.8981 22.6512C20.3501 22.3111 22.0978 20.191 22.0978 17.7505H20.5978ZM19.8475 15.5621C20.318 16.1663 20.5978 16.9247 20.5978 17.7505H22.0978C22.0978 16.5792 21.6993 15.4988 21.031 14.6405L19.8475 15.5621ZM18.3369 8V12.1688H19.8369V8H18.3369ZM12.0869 1.75C15.5387 1.75 18.3369 4.54822 18.3369 8H19.8369C19.8369 3.71979 16.3671 0.25 12.0869 0.25V1.75ZM10.2609 1.75H12.0869V0.25H10.2609V1.75ZM21.031 14.6405C20.3399 13.753 19.8369 12.9793 19.8369 12.1688H18.3369C18.3369 13.5591 19.1864 14.7132 19.8475 15.5621L21.031 14.6405ZM2.51091 12.169C2.51091 12.9794 2.00794 13.7531 1.3169 14.6406L2.50042 15.5622C3.16139 14.7133 4.01091 13.5592 4.01091 12.169H2.51091Z" fill="currentColor"/>
<path d="M14 25.4838C13.3924 26.3976 12.3535 26.9998 11.1739 26.9998C9.99436 26.9998 8.95544 26.3976 8.34788 25.4838" stroke="currentColor" stroke-width="1.5" stroke-linecap="round"/>
</g>
<defs>
<clipPath id="clip0_114_150">
<rect width="23" height="28" fill="white"/>
</clipPath>
</defs>
</svg>
