<svg width="20" height="19" viewBox="0 0 20 19" fill="none" xmlns="http://www.w3.org/2000/svg">
<path d="M2.62469 17.7001L2.31235 17.3097H2.31235L2.62469 17.7001ZM5.49174 15.4065L5.80409 15.7969L5.49174 15.4065ZM5.50127 15.3754L5.55054 14.8779L5.50127 15.3754ZM1.00024 10.45L0.500269 10.4549L1.00024 10.45ZM1.5 6C1.5 3.51472 3.51472 1.5 6 1.5V0.5C2.96243 0.5 0.5 2.96244 0.5 6H1.5ZM1.5 10.4V6H0.5V10.4H1.5ZM1.50022 10.4451C1.50007 10.4301 1.5 10.415 1.5 10.4H0.5C0.5 10.4183 0.50009 10.4366 0.500269 10.4549L1.50022 10.4451ZM1.5 16.9193V10.4501H0.5V16.9193H1.5ZM2.31235 17.3097C1.98497 17.5716 1.5 17.3385 1.5 16.9193H0.5C0.5 18.177 1.95489 18.8763 2.93704 18.0906L2.31235 17.3097ZM5.17939 15.0161L2.31235 17.3097L2.93704 18.0906L5.80409 15.7969L5.17939 15.0161ZM6 14.9C5.84817 14.9 5.69824 14.8925 5.55054 14.8779L5.452 15.873C5.63238 15.8909 5.8152 15.9 6 15.9V14.9ZM14 14.9H6V15.9H14V14.9ZM18.5 10.4C18.5 12.8853 16.4853 14.9 14 14.9V15.9C17.0376 15.9 19.5 13.4376 19.5 10.4H18.5ZM18.5 6V10.4H19.5V6H18.5ZM14 1.5C16.4853 1.5 18.5 3.51472 18.5 6H19.5C19.5 2.96243 17.0376 0.5 14 0.5V1.5ZM6 1.5H14V0.5H6V1.5ZM5.80409 15.7969C6.03387 15.6131 6.0608 15.2735 5.86286 15.0557L5.12291 15.7284C4.93268 15.5191 4.95856 15.1927 5.17939 15.0161L5.80409 15.7969ZM1.36996 10.1135C1.06369 9.7769 0.5 9.99122 0.5 10.4501H1.5C1.5 10.9088 0.936472 11.1231 0.63028 10.7865L1.36996 10.1135ZM5.86286 15.0557C6.16659 15.3898 5.8958 15.917 5.452 15.873L5.55054 14.8779C5.08858 14.8321 4.8069 15.3808 5.12291 15.7284L5.86286 15.0557ZM0.500269 10.4549C0.495771 9.99556 1.06095 9.77389 1.36996 10.1135L0.63028 10.7865C0.93938 11.1263 1.50472 10.9045 1.50022 10.4451L0.500269 10.4549Z" fill="#A7A7A7"/>
<circle cx="5.54541" cy="8.24493" r="0.625" fill="#A7A7A7" stroke="#A7A7A7"/>
<circle cx="10.0454" cy="8.245" r="0.625" fill="#A7A7A7" stroke="#A7A7A7"/>
<circle cx="14.5454" cy="8.245" r="0.625" fill="#A7A7A7" stroke="#A7A7A7"/>
</svg>
