<svg width="20" height="20" viewBox="0 0 20 20" fill="none" xmlns="http://www.w3.org/2000/svg">
<path fill-rule="evenodd" clip-rule="evenodd" d="M18.0389 18.628L17.7442 18.3333L13.8791 14.4683L13.5879 14.7012C12.3761 15.6706 10.8397 16.25 9.16683 16.25C5.25481 16.25 2.0835 13.0787 2.0835 9.16668C2.0835 5.25466 5.25481 2.08334 9.16683 2.08334C13.0788 2.08334 16.2502 5.25466 16.2502 9.16668C16.2502 10.8396 15.6708 12.376 14.7014 13.5878L14.4684 13.879L18.6233 18.034L18.6257 18.0363C18.703 18.1124 18.7502 18.217 18.7502 18.3333C18.7502 18.5635 18.5636 18.75 18.3335 18.75C18.2183 18.75 18.1147 18.7038 18.0389 18.628ZM9.16683 2.91668C5.71505 2.91668 2.91683 5.7149 2.91683 9.16668C2.91683 12.6185 5.71505 15.4167 9.16683 15.4167C12.6186 15.4167 15.4168 12.6185 15.4168 9.16668C15.4168 5.7149 12.6186 2.91668 9.16683 2.91668Z" fill="#8C8D96"/>
</svg>
